HIERARCHY
ROOT hips
{
	OFFSET 0.000000 104.274902 0.000000
	CHANNELS 6 Xposition Yposition Zposition Xrotation Yrotation Zrotation
	JOINT spine
	{
		OFFSET 0.000000 10.181549 0.131524
		CHANNELS 6 Xposition Yposition Zposition Xrotation Yrotation Zrotation
		JOINT chest
		{
			OFFSET 0.000000 9.893990 -1.470706
			CHANNELS 3 Xrotation Yrotation Zrotation
			JOINT upperChest
			{
				OFFSET 0.000000 9.220787 -1.370637
				CHANNELS 3 Xrotation Yrotation Zrotation
				JOINT neck
				{
					OFFSET 0.000000 16.740372 -2.049022
					CHANNELS 6 Xposition Yposition Zposition Xrotation Yrotation Zrotation
					JOINT head
					{
						OFFSET 0.000000 9.617859 1.684976
						CHANNELS 6 Xposition Yposition Zposition Xrotation Yrotation Zrotation
						JOINT headEnd
						{
							OFFSET 0.000000 22.037384 7.501072
							CHANNELS 6 Xposition Yposition Zposition Xrotation Yrotation Zrotation
							End Site
							{
								OFFSET 0.000000 23.106567 -2.828246
							}
						}
					}
				}
				JOINT rightShoulder
				{
					OFFSET -4.570000 11.014877 -2.160840
					CHANNELS 6 Xposition Yposition Zposition Xrotation Yrotation Zrotation
					JOINT rightUpperArm
					{
						OFFSET -10.592867 -0.524796 -2.232105
						CHANNELS 3 Xrotation Yrotation Zrotation
						JOINT rightLowerArm
						{
							OFFSET -27.841497 0.000000 -0.000002
							CHANNELS 3 Xrotation Yrotation Zrotation
							JOINT rightHand
							{
								OFFSET -28.328812 0.000000 -0.000001
								CHANNELS 3 Xrotation Yrotation Zrotation
								JOINT rightThumbProximal
								{
									OFFSET -2.464798 -1.573990 2.681911
									CHANNELS 6 Xposition Yposition Zposition Xrotation Yrotation Zrotation
									JOINT rightThumbIntermediate
									{
										OFFSET -3.244781 -1.873383 1.873376
										CHANNELS 3 Xrotation Yrotation Zrotation
										JOINT rightThumbDistal
										{
											OFFSET -2.646263 -1.527817 1.527818
											CHANNELS 6 Xposition Yposition Zposition Xrotation Yrotation Zrotation
											JOINT rightHandThumb4
											{
												OFFSET -1.994591 -1.151581 1.151575
												CHANNELS 6 Xposition Yposition Zposition Xrotation Yrotation Zrotation
												End Site
												{
													OFFSET -1.860176 -1.142715 1.365483
												}
											}
										}
									}
								}
								JOINT rightIndexProximal
								{
									OFFSET -9.108299 -0.517883 2.259803
									CHANNELS 6 Xposition Yposition Zposition Xrotation Yrotation Zrotation
									JOINT rightIndexIntermediate
									{
										OFFSET -3.699997 0.000000 0.000000
										CHANNELS 3 Xrotation Yrotation Zrotation
										JOINT rightIndexDistal
										{
											OFFSET -2.850006 0.000000 0.000000
											CHANNELS 3 Xrotation Yrotation Zrotation
											JOINT rightHandIndex4
											{
												OFFSET -2.772194 0.000000 0.000000
												CHANNELS 3 Xrotation Yrotation Zrotation
												End Site
												{
													OFFSET -2.772202 0.000000 -0.000484
												}
											}
										}
									}
								}
								JOINT rightMiddleProximal
								{
									OFFSET -9.532501 0.000000 -0.000000
									CHANNELS 6 Xposition Yposition Zposition Xrotation Yrotation Zrotation
									JOINT rightMiddleIntermediate
									{
										OFFSET -3.699997 0.000000 0.000000
										CHANNELS 3 Xrotation Yrotation Zrotation
										JOINT rightMiddleDistal
										{
											OFFSET -2.949997 0.000000 0.000000
											CHANNELS 3 Xrotation Yrotation Zrotation
											JOINT rightHandMiddle4
											{
												OFFSET -2.946594 0.000000 0.000000
												CHANNELS 3 Xrotation Yrotation Zrotation
												End Site
												{
													OFFSET -2.946602 0.000000 -0.000982
												}
											}
										}
									}
								}
								JOINT rightRingProximal
								{
									OFFSET -9.103600 -0.043106 -1.865100
									CHANNELS 6 Xposition Yposition Zposition Xrotation Yrotation Zrotation
									JOINT rightRingIntermediate
									{
										OFFSET -3.379303 0.000000 0.000000
										CHANNELS 3 Xrotation Yrotation Zrotation
										JOINT rightRingDistal
										{
											OFFSET -2.889694 0.000000 0.000000
											CHANNELS 3 Xrotation Yrotation Zrotation
											JOINT rightHandRing4
											{
												OFFSET -2.638802 0.000000 0.000000
												CHANNELS 3 Xrotation Yrotation Zrotation
												End Site
												{
													OFFSET -2.638802 0.000000 0.004218
												}
											}
										}
									}
								}
								JOINT rightLittleProximal
								{
									OFFSET -8.076698 -0.486725 -3.806299
									CHANNELS 6 Xposition Yposition Zposition Xrotation Yrotation Zrotation
									JOINT rightLittleIntermediate
									{
										OFFSET -3.600006 0.000000 0.000000
										CHANNELS 3 Xrotation Yrotation Zrotation
										JOINT rightLittleDistal
										{
											OFFSET -2.099998 0.000000 0.000000
											CHANNELS 3 Xrotation Yrotation Zrotation
											JOINT rightHandPinky4
											{
												OFFSET -2.115791 0.000000 0.000000
												CHANNELS 3 Xrotation Yrotation Zrotation
												End Site
												{
													OFFSET -2.115799 0.000000 0.000174
												}
											}
										}
									}
								}
							}
						}
					}
				}
				JOINT leftShoulder
				{
					OFFSET 4.570400 11.014679 -2.160816
					CHANNELS 6 Xposition Yposition Zposition Xrotation Yrotation Zrotation
					JOINT leftUpperArm
					{
						OFFSET 10.592373 -0.524597 -2.232116
						CHANNELS 3 Xrotation Yrotation Zrotation
						JOINT leftLowerArm
						{
							OFFSET 27.841488 0.000000 0.000001
							CHANNELS 3 Xrotation Yrotation Zrotation
							JOINT leftHand
							{
								OFFSET 28.328808 0.000000 -0.000000
								CHANNELS 3 Xrotation Yrotation Zrotation
								JOINT leftThumbProximal
								{
									OFFSET 2.466103 -1.576202 2.681698
									CHANNELS 6 Xposition Yposition Zposition Xrotation Yrotation Zrotation
									JOINT leftThumbIntermediate
									{
										OFFSET 3.243317 -1.872528 1.872530
										CHANNELS 3 Xrotation Yrotation Zrotation
										JOINT leftThumbDistal
										{
											OFFSET 2.647881 -1.528763 1.528754
											CHANNELS 6 Xposition Yposition Zposition Xrotation Yrotation Zrotation
											JOINT leftHandThumb4
											{
												OFFSET 1.998924 -1.154083 1.154080
												CHANNELS 6 Xposition Yposition Zposition Xrotation Yrotation Zrotation
												End Site
												{
													OFFSET 1.884041 -1.149155 1.337651
												}
											}
										}
									}
								}
								JOINT leftIndexProximal
								{
									OFFSET 9.109299 -0.518005 2.259900
									CHANNELS 6 Xposition Yposition Zposition Xrotation Yrotation Zrotation
									JOINT leftIndexIntermediate
									{
										OFFSET 3.699997 0.000000 0.000000
										CHANNELS 3 Xrotation Yrotation Zrotation
										JOINT leftIndexDistal
										{
											OFFSET 2.850006 0.000000 0.000000
											CHANNELS 3 Xrotation Yrotation Zrotation
											JOINT leftHandIndex4
											{
												OFFSET 2.774895 0.000000 0.000000
												CHANNELS 3 Xrotation Yrotation Zrotation
												End Site
												{
													OFFSET 2.774902 0.000000 -0.000072
												}
											}
										}
									}
								}
								JOINT leftMiddleProximal
								{
									OFFSET 9.533401 0.000000 0.000000
									CHANNELS 6 Xposition Yposition Zposition Xrotation Yrotation Zrotation
									JOINT leftMiddleIntermediate
									{
										OFFSET 3.699997 0.000000 0.000000
										CHANNELS 3 Xrotation Yrotation Zrotation
										JOINT leftMiddleDistal
										{
											OFFSET 2.949997 0.000000 0.000000
											CHANNELS 3 Xrotation Yrotation Zrotation
											JOINT leftHandMiddle4
											{
												OFFSET 2.952896 0.000000 0.000000
												CHANNELS 3 Xrotation Yrotation Zrotation
												End Site
												{
													OFFSET 2.952904 0.000000 0.000165
												}
											}
										}
									}
								}
								JOINT leftRingProximal
								{
									OFFSET 9.104500 -0.042999 -1.865101
									CHANNELS 6 Xposition Yposition Zposition Xrotation Yrotation Zrotation
									JOINT leftRingIntermediate
									{
										OFFSET 3.149994 0.000000 0.000000
										CHANNELS 3 Xrotation Yrotation Zrotation
										JOINT leftRingDistal
										{
											OFFSET 2.950005 0.000000 0.000000
											CHANNELS 3 Xrotation Yrotation Zrotation
											JOINT leftHandRing4
											{
												OFFSET 2.644302 0.000000 0.000000
												CHANNELS 3 Xrotation Yrotation Zrotation
												End Site
												{
													OFFSET 2.644302 0.000000 0.000083
												}
											}
										}
									}
								}
								JOINT leftLittleProximal
								{
									OFFSET 8.077805 -0.486893 -3.806302
									CHANNELS 6 Xposition Yposition Zposition Xrotation Yrotation Zrotation
									JOINT leftLittleIntermediate
									{
										OFFSET 3.600006 0.000000 0.000000
										CHANNELS 3 Xrotation Yrotation Zrotation
										JOINT leftLittleDistal
										{
											OFFSET 2.099998 0.000000 0.000000
											CHANNELS 3 Xrotation Yrotation Zrotation
											JOINT leftHandPinky4
											{
												OFFSET 2.125496 0.000000 0.000000
												CHANNELS 3 Xrotation Yrotation Zrotation
												End Site
												{
													OFFSET 2.125504 0.000000 -0.001254
												}
											}
										}
									}
								}
							}
						}
					}
				}
			}
		}
	}
	JOINT rightUpperLeg
	{
		OFFSET -8.207800 -6.751701 -1.599544
		CHANNELS 6 Xposition Yposition Zposition Xrotation Yrotation Zrotation
		JOINT rightLowerLeg
		{
			OFFSET 0.000004 -44.370152 0.345934
			CHANNELS 3 Xrotation Yrotation Zrotation
			JOINT rightFoot
			{
				OFFSET 0.000004 -44.423664 -3.043535
				CHANNELS 3 Xrotation Yrotation Zrotation
				JOINT rightToes
				{
					OFFSET 0.000001 -8.728691 10.710592
					CHANNELS 3 Xrotation Yrotation Zrotation
					JOINT rightToesEnd
					{
						OFFSET 0.000000 -0.000665 9.278101
						CHANNELS 3 Xrotation Yrotation Zrotation
						End Site
						{
							OFFSET 0.000000 -0.000665 9.278103
						}
					}
				}
			}
		}
	}
	JOINT leftUpperLeg
	{
		OFFSET 8.207800 -6.751701 -1.599544
		CHANNELS 6 Xposition Yposition Zposition Xrotation Yrotation Zrotation
		JOINT leftLowerLeg
		{
			OFFSET 0.000004 -44.370037 0.346940
			CHANNELS 3 Xrotation Yrotation Zrotation
			JOINT leftFoot
			{
				OFFSET 0.000004 -44.423611 -3.044388
				CHANNELS 3 Xrotation Yrotation Zrotation
				JOINT leftToes
				{
					OFFSET 0.000001 -8.728690 10.710592
					CHANNELS 3 Xrotation Yrotation Zrotation
					JOINT leftToesEnd
					{
						OFFSET 0.000000 -0.000680 9.278101
						CHANNELS 3 Xrotation Yrotation Zrotation
						End Site
						{
							OFFSET 0.000000 -0.000680 9.278101
						}
					}
				}
			}
		}
	}
}
MOTION
Frames: 4
Frame Time: 0.033333
10.028542 111.480301 12.139324 2.915428 1.587926 -6.118031 -0.000000 10.181552 0.131521 0.098672 1.368140 -4.407785 0.169494 2.773788 -5.195840 0.198992 2.777662 -5.193632 0.000001 16.740345 -2.049016 1.020163 -1.335752 9.742644 -0.000005 9.617853 1.684972 4.081581 2.936359 18.711759 0.000002 22.037354 7.501071 -0.000000 0.000001 -0.000000 -4.570003 11.014855 -2.160836 -1.543401 -9.333349 -9.236744 -34.038921 63.388848 -32.876723 0.000001 -0.000000 0.000002 -39.773441 -3.436673 -9.651290 -2.464806 -1.573998 2.681909 -1.849245 -3.581784 -6.586139 4.645028 -8.656788 -0.231295 -2.646275 -1.527819 1.527833 -1.269834 0.126080 -2.098668 -1.994613 -1.151586 1.151575 0.000001 -0.000006 0.000003 -9.108308 -0.517867 2.259801 0.000001 -0.000000 0.000000 -0.000005 0.000002 0.000010 0.000007 -0.000002 -0.000002 -0.000003 0.000000 0.000001 -9.532525 0.000015 -0.000002 0.000001 -0.000000 0.000000 -0.000004 0.000002 0.000011 0.000007 -0.000002 -0.000002 0.000000 -0.000000 0.000001 -9.103616 -0.043090 -1.865104 0.000001 0.000000 0.000000 -0.000005 0.000002 0.000010 0.000007 -0.000002 -0.000003 -0.000001 0.000000 -0.000001 -8.076719 -0.486713 -3.806299 -0.000004 0.000003 0.000002 -0.000002 0.000002 0.000011 0.000003 -0.000002 0.000002 0.000000 -0.000000 0.000000 4.570405 11.014668 -2.160811 1.533640 -4.160890 -9.608750 4.138929 28.211208 -46.537453 0.000013 -23.624263 0.000025 -10.987816 0.869580 -14.649922 2.466095 -1.576216 2.681696 -1.539941 3.690268 6.142367 3.946757 7.971388 0.752853 2.647893 -1.528762 1.528745 -0.575618 1.586261 2.542386 1.998932 -1.154091 1.154071 -0.000001 0.000001 -0.000000 9.109298 -0.518005 2.259900 0.000000 -0.000000 0.000000 0.000007 -0.000002 -0.000007 0.000000 -0.000002 -0.000004 0.000000 -0.000000 -0.000000 9.533399 0.000007 0.000000 0.000001 -0.001931 0.015984 0.000003 0.001934 -0.015986 -0.000005 -0.000002 0.000001 0.000002 0.000000 0.000000 9.104499 -0.042999 -1.865103 0.000000 -0.000000 0.000000 0.000002 -0.000005 -0.000001 0.000008 -0.000001 0.000000 -0.000003 0.000000 -0.000000 8.077800 -0.486889 -3.806302 -0.018087 4.054255 0.511056 -0.018083 -4.054255 -0.511063 -0.000010 0.000001 -0.000000 -0.000002 0.000000 -0.000000 -8.207799 -6.751706 -1.599544 -7.678155 -6.997933 -13.157532 5.180270 2.966364 0.077547 37.815933 -2.006495 3.504613 -0.170435 -0.000001 0.000002 -0.000005 -0.000001 0.000000 8.207796 -6.751698 -1.599546 -13.793371 11.744764 15.010678 7.127642 1.824723 0.136087 45.226477 5.841493 9.193613 -32.137058 0.010050 -0.920861 0.000002 -0.000000 0.000000 
9.036127 111.150238 11.485318 2.595883 1.290462 -6.039997 0.000001 10.181546 0.131523 0.044642 1.294082 -4.561638 0.055688 2.598785 -5.478581 0.085188 2.605248 -5.476139 0.000009 16.740356 -2.049017 1.219099 -1.160886 9.542178 -0.000003 9.617860 1.684975 4.237781 2.831520 21.609817 0.000001 22.037369 7.501079 -0.000000 0.000000 -0.000000 -4.569997 11.014853 -2.160837 -1.488178 -8.933961 -9.300764 -33.012247 60.887072 -33.449608 0.000002 0.000003 0.000000 -42.848205 -9.205725 -2.333281 -2.464833 -1.573995 2.681915 -1.849249 -3.581782 -6.586135 4.645024 -8.656785 -0.231291 -2.646257 -1.527822 1.527827 -1.269835 0.126085 -2.098663 -1.994579 -1.151592 1.151567 0.000003 -0.000003 0.000001 -9.108319 -0.517885 2.259805 -0.000001 -0.000000 -0.000001 -0.000006 0.000002 0.000011 0.000006 -0.000003 0.000001 -0.000001 -0.000000 -0.000001 -9.532529 -0.000001 0.000001 -0.000001 0.000000 -0.000001 -0.000006 0.000002 0.000010 0.000006 -0.000003 0.000001 0.000000 -0.000002 0.000001 -9.103620 -0.043106 -1.865100 -0.000001 -0.000001 -0.000001 -0.000005 0.000002 0.000010 0.000007 -0.000003 -0.000002 -0.000001 0.000001 -0.000003 -8.076716 -0.486729 -3.806294 -0.000007 0.000003 0.000001 -0.000003 0.000002 0.000010 0.000002 -0.000002 0.000002 -0.000001 -0.000000 0.000001 4.570407 11.014671 -2.160811 1.515278 -4.052776 -9.408102 1.130412 27.395281 -44.393935 0.000002 -22.508024 0.000018 -7.783456 0.107553 -12.395012 2.466085 -1.576199 2.681700 -1.539946 3.690266 6.142365 3.946759 7.971389 0.752855 2.647902 -1.528764 1.528756 -0.575614 1.586259 2.542383 1.998914 -1.154083 1.154084 0.000001 -0.000000 -0.000002 9.109298 -0.518020 2.259901 -0.000003 -0.000000 0.000000 0.000004 -0.000002 -0.000007 -0.000003 -0.000002 -0.000002 -0.000003 -0.000000 0.000000 9.533393 0.000008 0.000000 0.000003 -0.001931 0.015983 0.000006 0.001934 -0.015986 -0.000010 -0.000002 0.000001 -0.000001 -0.000001 0.000001 9.104499 -0.042999 -1.865102 -0.000003 -0.000000 0.000000 -0.000002 -0.000004 -0.000002 0.000007 -0.000002 0.000001 -0.000000 0.000001 0.000000 8.077792 -0.486888 -3.806300 -0.018084 4.054254 0.511056 -0.018083 -4.054255 -0.511064 -0.000007 0.000001 -0.000001 -0.000001 -0.000001 0.000001 -8.207803 -6.751693 -1.599545 -8.173610 -7.345512 -13.524209 7.230993 3.217875 0.098134 31.691101 -1.501231 4.768281 -0.036453 -0.000001 -0.000003 -0.000004 -0.000001 -0.000001 8.207801 -6.751698 -1.599545 -14.683035 11.226345 15.927081 8.745336 2.988806 0.209122 46.215266 5.775631 7.817382 -33.160500 0.012784 -1.037811 0.000002 0.000001 -0.000000 
7.533932 110.490730 10.796404 2.428841 1.080599 -5.824942 0.000001 10.181544 0.131524 -0.017791 1.130691 -4.911620 -0.078592 2.268946 -5.962393 -0.049677 2.279116 -5.959895 -0.000003 16.740387 -2.049021 1.412060 -1.117726 9.413025 0.000001 9.617831 1.684975 4.498186 2.228673 24.370262 -0.000003 22.037369 7.501074 0.000000 0.000000 0.000000 -4.569998 11.014885 -2.160840 -1.402926 -8.465044 -9.156994 -32.582492 54.356227 -32.844416 -0.000006 2.010558 0.000005 -45.006353 -18.210268 6.675321 -2.464818 -1.573963 2.681924 -1.849241 -3.581782 -6.586135 4.645027 -8.656785 -0.231288 -2.646278 -1.527816 1.527824 -1.269833 0.126082 -2.098667 -1.994594 -1.151572 1.151568 -0.000001 -0.000005 0.000001 -9.108288 -0.517868 2.259806 0.000001 -0.000001 -0.000001 -0.000005 0.000000 0.000013 0.000006 -0.000004 0.000002 -0.000003 -0.000003 0.000003 -9.532497 0.000018 0.000007 0.000001 -0.000000 -0.000001 -0.000006 0.000002 0.000014 0.000006 -0.000004 0.000002 -0.000002 -0.000001 0.000004 -9.103580 -0.043091 -1.865098 0.000001 -0.000001 -0.000001 -0.000005 0.000003 0.000014 0.000005 -0.000002 -0.000002 -0.000001 -0.000001 0.000003 -8.076684 -0.486712 -3.806291 -0.000005 0.000004 0.000000 -0.000005 0.000001 0.000010 0.000002 -0.000003 0.000006 -0.000002 0.000000 0.000001 4.570403 11.014698 -2.160815 1.499387 -3.959206 -9.245729 -2.342943 26.364561 -41.862472 0.000004 -21.281174 -0.000010 -4.413868 -0.349354 -10.172647 2.466083 -1.576205 2.681697 -1.539944 3.690268 6.142369 3.946756 7.971393 0.752854 2.647880 -1.528748 1.528752 -0.575613 1.586257 2.542389 1.998936 -1.154090 1.154072 0.000000 -0.000001 0.000001 9.109277 -0.518007 2.259896 -0.000001 -0.000000 -0.000000 0.000008 -0.000002 -0.000007 -0.000004 -0.000002 -0.000003 -0.000000 -0.000000 0.000000 9.533381 0.000008 -0.000002 0.000005 -0.001931 0.015985 0.000005 0.001933 -0.015984 -0.000009 -0.000001 0.000001 0.000001 -0.000000 0.000001 9.104486 -0.042999 -1.865103 -0.000001 -0.000000 -0.000000 -0.000001 -0.000005 -0.000003 0.000005 -0.000001 0.000001 -0.000002 0.000000 -0.000001 8.077796 -0.486891 -3.806304 -0.018086 4.054255 0.511058 -0.018087 -4.054255 -0.511064 -0.000010 -0.000000 0.000001 -0.000002 -0.000001 0.000001 -8.207802 -6.751715 -1.599542 -8.544990 -7.708875 -13.906423 8.359655 2.159070 0.053680 26.753103 -1.246708 4.776594 -0.026038 -0.000006 0.000001 0.000002 0.000001 -0.000000 8.207799 -6.751715 -1.599544 -16.505231 10.154089 17.036348 11.706525 4.313452 0.296559 47.393320 5.830863 6.421107 -34.722558 0.035894 -1.748050 -0.000001 0.000000 -0.000002 
5.544008 109.363518 10.039016 2.342061 0.937828 -5.575458 0.000001 10.181560 0.131520 -0.027724 0.970414 -5.432356 -0.115375 1.983106 -6.512286 -0.085343 1.996701 -6.509597 0.000003 16.740376 -2.049023 1.558642 -1.468227 9.161424 0.000010 9.617805 1.684980 4.674644 -0.176527 25.194876 0.000000 22.037354 7.501076 0.000000 0.000000 0.000001 -4.569998 11.014867 -2.160842 -1.312151 -8.187054 -8.501950 -35.631946 43.748147 -28.702115 -0.000003 10.546803 0.000026 -46.072204 -28.216792 15.058211 -2.464795 -1.574000 2.681921 -1.849243 -3.581782 -6.586130 4.645028 -8.656785 -0.231285 -2.646249 -1.527835 1.527794 -1.269834 0.126077 -2.098670 -1.994590 -1.151581 1.151563 -0.000001 0.000001 0.000006 -9.108273 -0.517898 2.259810 -0.000000 -0.000001 0.000001 -0.000006 0.000003 0.000013 0.000007 -0.000003 0.000001 -0.000003 -0.000003 0.000001 -9.532475 -0.000019 0.000007 -0.000001 -0.000001 0.000001 -0.000005 0.000001 0.000008 0.000005 -0.000001 0.000003 0.000000 -0.000000 0.000002 -9.103588 -0.043121 -1.865093 -0.000001 -0.000001 0.000001 -0.000004 0.000003 0.000013 0.000008 -0.000003 0.000003 -0.000000 0.000000 0.000003 -8.076690 -0.486729 -3.806289 -0.000007 0.000003 0.000002 -0.000004 0.000006 0.000008 0.000003 0.000001 0.000001 0.000001 -0.000001 0.000001 4.570403 11.014655 -2.160818 1.495357 -3.930042 -9.244366 -6.216488 24.578695 -39.125475 0.000004 -20.352135 -0.000002 -1.373961 -0.403878 -7.984281 2.466102 -1.576204 2.681695 -1.539939 3.690266 6.142368 3.946753 7.971392 0.752852 2.647895 -1.528746 1.528758 -0.575616 1.586263 2.542386 1.998921 -1.154082 1.154075 -0.000001 0.000001 0.000001 9.109299 -0.518005 2.259897 0.000001 -0.000001 0.000000 0.000008 -0.000003 -0.000007 -0.000002 -0.000003 -0.000004 -0.000001 0.000000 -0.000000 9.533401 0.000006 -0.000004 0.000005 -0.001932 0.015983 0.000006 0.001933 -0.015985 -0.000009 -0.000002 -0.000001 -0.000001 0.000000 0.000000 9.104500 -0.042999 -1.865101 0.000001 -0.000001 0.000000 0.000002 -0.000005 -0.000001 0.000009 -0.000000 -0.000000 -0.000002 0.000000 0.000000 8.077793 -0.486888 -3.806304 -0.018083 4.054254 0.511056 -0.018087 -4.054255 -0.511063 -0.000006 -0.000001 0.000000 0.000002 0.000001 -0.000002 -8.207804 -6.751708 -1.599543 -8.976657 -7.771189 -14.022620 8.980496 0.211296 -0.036848 24.083134 -1.177374 3.634223 -0.015618 -0.000002 0.000002 0.000001 -0.000000 0.000000 8.207797 -6.751699 -1.599546 -19.343369 8.339679 18.331318 16.379200 5.526820 0.383988 48.525683 6.202891 5.389713 -37.260543 0.063621 -2.301795 -0.000000 -0.000001 0.000000 
